<mxfile host="app.diagrams.net" modified="2020-10-27T13:09:04.821Z" agent="5.0 (Windows NT 10.0; Win64; x64) AppleWebKit/537.36 (KHTML, like Gecko) Chrome/86.0.4240.111 Safari/537.36 Edg/86.0.622.51" etag="vWX-ltI-G0YoqYOu-Ttw" version="13.8.3" type="github">
  <diagram id="RotxRWtWAplPm-sw7Vok" name="Page-1">
    <mxGraphModel dx="1110" dy="701" grid="1" gridSize="10" guides="1" tooltips="1" connect="1" arrows="1" fold="1" page="1" pageScale="1" pageWidth="1654" pageHeight="1169" math="0" shadow="0">
      <root>
        <mxCell id="0" />
        <mxCell id="1" parent="0" />
      </root>
    </mxGraphModel>
  </diagram>
</mxfile>
